<svg width="39" height="39" viewBox="0 0 39 39" fill="none" xmlns="http://www.w3.org/2000/svg">
<g clip-path="url(#clip0_38_12)">
<path d="M31.6875 4.875H7.3125C6.66603 4.875 6.04605 5.13181 5.58893 5.58893C5.13181 6.04605 4.875 6.66603 4.875 7.3125V31.6875C4.875 32.334 5.13181 32.954 5.58893 33.4111C6.04605 33.8682 6.66603 34.125 7.3125 34.125H31.6875C32.334 34.125 32.954 33.8682 33.4111 33.4111C33.8682 32.954 34.125 32.334 34.125 31.6875V7.3125C34.125 6.66603 33.8682 6.04605 33.4111 5.58893C32.954 5.13181 32.334 4.875 31.6875 4.875ZM28.0312 20.7188H20.7188V28.0312C20.7188 28.3545 20.5903 28.6645 20.3618 28.893C20.1332 29.1216 19.8232 29.25 19.5 29.25C19.1768 29.25 18.8668 29.1216 18.6382 28.893C18.4097 28.6645 18.2812 28.3545 18.2812 28.0312V20.7188H10.9688C10.6455 20.7188 10.3355 20.5903 10.107 20.3618C9.8784 20.1332 9.75 19.8232 9.75 19.5C9.75 19.1768 9.8784 18.8668 10.107 18.6382C10.3355 18.4097 10.6455 18.2812 10.9688 18.2812H18.2812V10.9688C18.2812 10.6455 18.4097 10.3355 18.6382 10.107C18.8668 9.8784 19.1768 9.75 19.5 9.75C19.8232 9.75 20.1332 9.8784 20.3618 10.107C20.5903 10.3355 20.7188 10.6455 20.7188 10.9688V18.2812H28.0312C28.3545 18.2812 28.6645 18.4097 28.893 18.6382C29.1216 18.8668 29.25 19.1768 29.25 19.5C29.25 19.8232 29.1216 20.1332 28.893 20.3618C28.6645 20.5903 28.3545 20.7188 28.0312 20.7188Z" fill="#FD7E14"/>
</g>
<defs>
<clipPath id="clip0_38_12">
<rect width="39" height="39" fill="white"/>
</clipPath>
</defs>
</svg>
